<svg width="256" height="256" viewBox="0 0 256 256" xmlns="http://www.w3.org/2000/svg">
  <!-- 背景圆形 -->
  <circle cx="128" cy="128" r="120" fill="#3B82F6" stroke="#1E40AF" stroke-width="4"/>
  
  <!-- 工具图标 -->
  <g transform="translate(128, 128)">
    <!-- 扳手 -->
    <path d="M-40 -20 L-20 -40 L-10 -30 L10 -10 L20 -20 L40 0 L20 20 L10 10 L-10 30 L-20 20 L-40 0 Z" 
          fill="white" stroke="#1E40AF" stroke-width="2"/>
    
    <!-- 齿轮 -->
    <circle cx="30" cy="-30" r="15" fill="white" stroke="#1E40AF" stroke-width="2"/>
    <circle cx="30" cy="-30" r="8" fill="#3B82F6"/>
    
    <!-- 文件图标 -->
    <rect x="-50" y="10" width="30" height="40" rx="3" fill="white" stroke="#1E40AF" stroke-width="2"/>
    <rect x="-45" y="20" width="20" height="2" fill="#3B82F6"/>
    <rect x="-45" y="26" width="15" height="2" fill="#3B82F6"/>
    <rect x="-45" y="32" width="18" height="2" fill="#3B82F6"/>
    
    <!-- 箭头表示处理 -->
    <path d="M-15 25 L5 25 M0 20 L5 25 L0 30" 
          stroke="white" stroke-width="3" fill="none" stroke-linecap="round"/>
  </g>
  
  <!-- 装饰性元素 -->
  <circle cx="60" cy="60" r="4" fill="white" opacity="0.7"/>
  <circle cx="196" cy="80" r="3" fill="white" opacity="0.5"/>
  <circle cx="80" cy="196" r="3" fill="white" opacity="0.6"/>
  <circle cx="200" cy="200" r="4" fill="white" opacity="0.4"/>
</svg>
